<svg width="25" height="21" viewBox="0 0 25 21" fill="none" xmlns="http://www.w3.org/2000/svg">
<path d="M1.71468 9.03895C8.42875 6.07584 12.9048 4.12065 15.1428 3.17805C21.5391 0.480915 22.8654 0.0142827 23.7311 0.000283715C23.9199 -0.00438261 24.3482 0.0469464 24.6245 0.27093C24.8593 0.462249 24.9238 0.718897 24.9514 0.900883C24.9791 1.08287 25.0205 1.49817 24.9883 1.82015C24.6429 5.51121 23.1417 14.4612 22.3818 18.5956C22.0595 20.3454 21.424 20.9287 20.8069 20.9894C19.4715 21.1154 18.4538 20.0935 17.1598 19.2349C15.1336 17.891 13.987 17.051 12.0206 15.7351C9.74577 14.2186 11.2194 13.3833 12.518 12.0207C12.8587 11.6661 18.7485 6.23449 18.8636 5.73986C18.8774 5.6792 18.8913 5.45055 18.7577 5.32922C18.6242 5.2079 18.4262 5.2499 18.2788 5.28256C18.0762 5.32922 14.8389 7.49906 8.56689 11.7874C7.6459 12.4267 6.817 12.7393 6.07099 12.7207C5.2467 12.702 3.66719 12.2494 2.49292 11.8621C1.05156 11.3861 -0.095076 11.1341 0.00623358 10.3315C0.0568884 9.90689 0.627906 9.47758 1.71468 9.03895Z" fill="#0A0B57"/>
</svg>
